<?xml version="1.0" standalone="no"?>
<!DOCTYPE svg PUBLIC "-//W3C//DTD SVG 20010904//EN"
 "http://www.w3.org/TR/2001/REC-SVG-20010904/DTD/svg10.dtd">
<svg version="1.0" xmlns="http://www.w3.org/2000/svg"
 width="700.000000pt" height="700.000000pt" viewBox="0 0 700.000000 700.000000"
 preserveAspectRatio="xMidYMid meet">
<metadata>
Created by potrace 1.14, written by Peter Selinger 2001-2017
</metadata>
<g transform="translate(0.000000,700.000000) scale(0.100000,-0.100000)"
fill="#000000" stroke="none">
<path d="M1115 6138 c3 -46 7 -101 10 -123 2 -22 6 -71 10 -110 3 -38 7 -90
10 -115 2 -25 7 -76 10 -115 3 -38 8 -90 10 -115 2 -25 7 -76 10 -115 3 -38 7
-92 10 -120 2 -27 7 -81 10 -120 7 -79 11 -120 20 -220 8 -80 13 -141 20 -235
2 -36 7 -83 9 -105 3 -22 7 -78 11 -125 3 -47 8 -101 10 -120 3 -19 7 -66 10
-105 3 -38 8 -95 10 -125 3 -30 7 -81 10 -112 3 -32 8 -86 11 -120 3 -35 7
-81 9 -103 3 -45 14 -168 20 -235 3 -25 7 -81 11 -125 4 -44 8 -93 10 -110 1
-16 6 -68 9 -115 4 -47 8 -101 10 -120 7 -68 14 -146 20 -220 3 -41 8 -91 10
-110 2 -19 7 -71 10 -115 3 -44 7 -100 10 -125 4 -50 14 -158 20 -235 7 -76
15 -165 20 -215 2 -25 7 -79 10 -120 4 -41 8 -91 10 -110 2 -19 6 -71 9 -115
6 -76 9 -104 21 -240 3 -33 8 -87 10 -119 3 -33 7 -61 9 -63 5 -5 323 -98 471
-138 55 -15 222 -64 326 -95 37 -12 75 -23 85 -25 34 -8 354 -99 474 -135 36
-10 185 -53 331 -95 l267 -76 443 127 c244 70 458 130 474 134 17 4 134 38
260 74 253 73 684 196 700 201 6 1 25 6 42 10 18 4 37 12 42 19 5 6 12 52 15
101 4 50 9 110 11 135 7 59 13 128 20 220 3 41 8 95 10 120 3 25 7 74 10 110
3 36 7 83 9 105 2 22 7 78 11 125 3 47 8 101 10 120 6 54 14 147 20 230 3 41
7 91 10 110 2 19 7 71 10 115 4 44 8 98 10 120 2 22 6 72 9 110 4 39 8 90 11
115 3 25 7 81 10 125 4 44 8 96 10 115 3 19 7 64 10 100 12 153 18 224 30 350
12 136 20 231 30 350 6 75 10 120 19 215 3 28 8 84 11 125 3 41 8 95 10 120 2
25 7 73 10 108 3 34 7 88 10 120 3 31 7 86 10 122 3 36 7 85 10 110 2 25 7 74
10 110 3 36 8 92 11 125 3 33 7 85 9 115 2 31 6 78 9 105 3 28 8 84 11 125 4
41 8 91 10 110 2 19 7 71 10 115 4 44 9 103 11 130 3 28 7 71 9 98 l4 47
-2385 0 -2386 0 7 -82z"/>
</g>
</svg>
